<?xml version="1.0" encoding="UTF-8"?>
<svg xmlns="http://www.w3.org/2000/svg" width="860" height="460" viewBox="0 0 860 460" font-family="'Microsoft YaHei','PingFang SC','Helvetica Neue',Arial,sans-serif">
<title>参数敏感性：重度疲劳分界</title>
<rect width="860" height="460" fill="#ffffff"/>
<text x="430" y="28" font-size="17" fill="#1d1d1f" text-anchor="middle" font-weight="600">参数敏感性：重度疲劳分界</text><line x1="72" y1="396" x2="710" y2="396" stroke="#86868b" stroke-width="1"/><text x="62" y="400" font-size="11" fill="#515154" text-anchor="end" font-weight="400">0</text><line x1="72" y1="328" x2="710" y2="328" stroke="#ececef" stroke-width="1"/><text x="62" y="332" font-size="11" fill="#515154" text-anchor="end" font-weight="400">0.2</text><line x1="72" y1="260" x2="710" y2="260" stroke="#ececef" stroke-width="1"/><text x="62" y="264" font-size="11" fill="#515154" text-anchor="end" font-weight="400">0.4</text><line x1="72" y1="192" x2="710" y2="192" stroke="#ececef" stroke-width="1"/><text x="62" y="196" font-size="11" fill="#515154" text-anchor="end" font-weight="400">0.6</text><line x1="72" y1="124" x2="710" y2="124" stroke="#ececef" stroke-width="1"/><text x="62" y="128" font-size="11" fill="#515154" text-anchor="end" font-weight="400">0.8</text><line x1="72" y1="56" x2="710" y2="56" stroke="#ececef" stroke-width="1"/><text x="62" y="60" font-size="11" fill="#515154" text-anchor="end" font-weight="400">1</text><line x1="72" y1="56" x2="72" y2="396" stroke="#f2f2f4" stroke-width="1"/><text x="72" y="416" font-size="11" fill="#515154" text-anchor="middle" font-weight="400">62</text><line x1="199.60000000000002" y1="56" x2="199.60000000000002" y2="396" stroke="#f2f2f4" stroke-width="1"/><text x="199.60000000000002" y="416" font-size="11" fill="#515154" text-anchor="middle" font-weight="400">68</text><line x1="327.20000000000005" y1="56" x2="327.20000000000005" y2="396" stroke="#f2f2f4" stroke-width="1"/><text x="327.20000000000005" y="416" font-size="11" fill="#515154" text-anchor="middle" font-weight="400">74</text><line x1="454.8" y1="56" x2="454.8" y2="396" stroke="#f2f2f4" stroke-width="1"/><text x="454.8" y="416" font-size="11" fill="#515154" text-anchor="middle" font-weight="400">80</text><line x1="582.4000000000001" y1="56" x2="582.4000000000001" y2="396" stroke="#f2f2f4" stroke-width="1"/><text x="582.4000000000001" y="416" font-size="11" fill="#515154" text-anchor="middle" font-weight="400">86</text><line x1="710" y1="56" x2="710" y2="396" stroke="#f2f2f4" stroke-width="1"/><text x="710" y="416" font-size="11" fill="#515154" text-anchor="middle" font-weight="400">92</text><line x1="72" y1="56" x2="72" y2="396" stroke="#86868b" stroke-width="1"/><path d="M72.0,207.9 L199.6,207.9 L327.2,207.9 L454.8,207.9 L582.4,207.9 L710.0,207.9" fill="none" stroke="#0071e3" stroke-width="2" stroke-linejoin="round"/><path d="M72.0,231.1 L199.6,231.1 L327.2,231.1 L454.8,231.1 L582.4,231.1 L710.0,231.1" fill="none" stroke="#c2731a" stroke-width="2" stroke-dasharray="6 4" stroke-linejoin="round"/><line x1="726" y1="60" x2="750" y2="60" stroke="#0071e3" stroke-width="2.5"/><text x="756" y="64" font-size="11.5" fill="#1d1d1f" text-anchor="start" font-weight="400">疲劳时间占比</text><line x1="726" y1="82" x2="750" y2="82" stroke="#c2731a" stroke-width="2.5" stroke-dasharray="6 4"/><text x="756" y="86" font-size="11.5" fill="#1d1d1f" text-anchor="start" font-weight="400">平均疲劳指数</text><text x="391" y="446" font-size="12.5" fill="#1d1d1f" text-anchor="middle" font-weight="400">重度疲劳分界</text><text x="20" y="226" font-size="12.5" fill="#1d1d1f" text-anchor="middle" font-weight="400" transform="rotate(-90 20 226)">占比 / 归一化指数</text>
</svg>