<?xml version="1.0" encoding="UTF-8"?>
<svg xmlns="http://www.w3.org/2000/svg" width="860" height="440" viewBox="0 0 860 440" font-family="'Microsoft YaHei','PingFang SC','Helvetica Neue',Arial,sans-serif">
<title>参数调优：F1 对比（10 组实验）</title>
<rect width="860" height="440" fill="#ffffff"/>
<text x="430" y="28" font-size="17" fill="#1d1d1f" text-anchor="middle" font-weight="600">参数调优：F1 对比（10 组实验）</text><line x1="72" y1="352" x2="820" y2="352" stroke="#86868b" stroke-width="1"/><text x="62" y="356" font-size="11" fill="#515154" text-anchor="end" font-weight="400">0</text><line x1="72" y1="292.8" x2="820" y2="292.8" stroke="#ececef" stroke-width="1"/><text x="62" y="296.8" font-size="11" fill="#515154" text-anchor="end" font-weight="400">20</text><line x1="72" y1="233.6" x2="820" y2="233.6" stroke="#ececef" stroke-width="1"/><text x="62" y="237.6" font-size="11" fill="#515154" text-anchor="end" font-weight="400">40</text><line x1="72" y1="174.4" x2="820" y2="174.4" stroke="#ececef" stroke-width="1"/><text x="62" y="178.4" font-size="11" fill="#515154" text-anchor="end" font-weight="400">60</text><line x1="72" y1="115.19999999999999" x2="820" y2="115.19999999999999" stroke="#ececef" stroke-width="1"/><text x="62" y="119.19999999999999" font-size="11" fill="#515154" text-anchor="end" font-weight="400">80</text><line x1="72" y1="56" x2="820" y2="56" stroke="#ececef" stroke-width="1"/><text x="62" y="60" font-size="11" fill="#515154" text-anchor="end" font-weight="400">101</text><rect x="88.83000000000001" y="102.64052578812522" width="41.14" height="249.35947421187478" fill="#146a38" fill-opacity="1" rx="3"/><text x="109.4" y="95.64052578812522" font-size="11.5" fill="#1d1d1f" text-anchor="middle" font-weight="600">85</text><text x="113.4" y="370" font-size="11.5" fill="#1d1d1f" text-anchor="end" font-weight="400" transform="rotate(-28 113.4 370)">基线（原始参数）</text><rect x="163.63" y="94.60331959451929" width="41.14" height="257.3966804054807" fill="#6e6e73" fill-opacity="1" rx="3"/><text x="184.2" y="87.60331959451929" font-size="11.5" fill="#1d1d1f" text-anchor="middle" font-weight="600">87</text><text x="188.2" y="370" font-size="11.5" fill="#1d1d1f" text-anchor="end" font-weight="400" transform="rotate(-28 188.2 370)">轻度分界 28</text><rect x="238.43" y="88.56805487038304" width="41.14" height="263.43194512961696" fill="#6e6e73" fill-opacity="1" rx="3"/><text x="259" y="81.56805487038304" font-size="11.5" fill="#1d1d1f" text-anchor="middle" font-weight="600">89</text><text x="263" y="370" font-size="11.5" fill="#1d1d1f" text-anchor="end" font-weight="400" transform="rotate(-28 263 370)">轻度分界 26</text><rect x="313.23" y="87.71428571428572" width="41.14" height="264.2857142857143" fill="#0057b8" fill-opacity="1" rx="3"/><text x="333.8" y="80.71428571428572" font-size="11.5" fill="#1d1d1f" text-anchor="middle" font-weight="600">90</text><text x="337.8" y="370" font-size="11.5" fill="#1d1d1f" text-anchor="end" font-weight="400" transform="rotate(-28 337.8 370)">轻度分界 24</text><rect x="388.03000000000003" y="102.58164515667025" width="41.14" height="249.41835484332975" fill="#6e6e73" fill-opacity="1" rx="3"/><text x="408.6" y="95.58164515667025" font-size="11.5" fill="#1d1d1f" text-anchor="middle" font-weight="600">85</text><text x="412.6" y="370" font-size="11.5" fill="#1d1d1f" text-anchor="end" font-weight="400" transform="rotate(-28 412.6 370)">EMA 0.15</text><rect x="462.83" y="102.52276452521525" width="41.14" height="249.47723547478475" fill="#6e6e73" fill-opacity="1" rx="3"/><text x="483.4" y="95.52276452521525" font-size="11.5" fill="#1d1d1f" text-anchor="middle" font-weight="600">85</text><text x="487.4" y="370" font-size="11.5" fill="#1d1d1f" text-anchor="end" font-weight="400" transform="rotate(-28 487.4 370)">EMA 0.18</text><rect x="537.63" y="95.5159693820716" width="41.14" height="256.4840306179284" fill="#6e6e73" fill-opacity="1" rx="3"/><text x="558.2" y="88.5159693820716" font-size="11.5" fill="#1d1d1f" text-anchor="middle" font-weight="600">87</text><text x="562.2" y="370" font-size="11.5" fill="#1d1d1f" text-anchor="end" font-weight="400" transform="rotate(-28 562.2 370)">PERCLOS窗口 20s</text><rect x="612.43" y="94.57387927879188" width="41.14" height="257.4261207212081" fill="#6e6e73" fill-opacity="1" rx="3"/><text x="633" y="87.57387927879188" font-size="11.5" fill="#1d1d1f" text-anchor="middle" font-weight="600">87</text><text x="637" y="370" font-size="11.5" fill="#1d1d1f" text-anchor="end" font-weight="400" transform="rotate(-28 637 370)">组合A: 28+EMA0.15</text><rect x="687.2299999999999" y="88.36197266029058" width="41.14" height="263.6380273397094" fill="#6e6e73" fill-opacity="1" rx="3"/><text x="707.8" y="81.36197266029058" font-size="11.5" fill="#1d1d1f" text-anchor="middle" font-weight="600">90</text><text x="711.8" y="370" font-size="11.5" fill="#1d1d1f" text-anchor="end" font-weight="400" transform="rotate(-28 711.8 370)">组合B: 26+EMA0.18</text><rect x="762.03" y="92.21865402059234" width="41.14" height="259.78134597940766" fill="#6e6e73" fill-opacity="1" rx="3"/><text x="782.6" y="85.21865402059234" font-size="11.5" fill="#1d1d1f" text-anchor="middle" font-weight="600">88</text><text x="786.6" y="370" font-size="11.5" fill="#1d1d1f" text-anchor="end" font-weight="400" transform="rotate(-28 786.6 370)">组合C: 28+EMA0.15+窗口20</text><line x1="72" y1="56" x2="72" y2="352" stroke="#86868b" stroke-width="1"/><text x="20" y="204" font-size="12.5" fill="#1d1d1f" text-anchor="middle" font-weight="400" transform="rotate(-90 20 204)">F1 分数（%）</text><text x="430" y="439" font-size="10.5" fill="#6e6e73" text-anchor="middle" font-weight="400">最优：轻度分界 24（0.898）| 基线：0.847</text>
</svg>