<?xml version="1.0" encoding="UTF-8"?>
<svg xmlns="http://www.w3.org/2000/svg" width="860" height="440" viewBox="0 0 860 440" font-family="'Microsoft YaHei','PingFang SC','Helvetica Neue',Arial,sans-serif">
<title>参数调优：灵敏度对比（10 组实验）</title>
<rect width="860" height="440" fill="#ffffff"/>
<text x="430" y="28" font-size="17" fill="#1d1d1f" text-anchor="middle" font-weight="600">参数调优：灵敏度对比（10 组实验）</text><line x1="72" y1="352" x2="820" y2="352" stroke="#86868b" stroke-width="1"/><text x="62" y="356" font-size="11" fill="#515154" text-anchor="end" font-weight="400">0</text><line x1="72" y1="292.8" x2="820" y2="292.8" stroke="#ececef" stroke-width="1"/><text x="62" y="296.8" font-size="11" fill="#515154" text-anchor="end" font-weight="400">18</text><line x1="72" y1="233.6" x2="820" y2="233.6" stroke="#ececef" stroke-width="1"/><text x="62" y="237.6" font-size="11" fill="#515154" text-anchor="end" font-weight="400">36</text><line x1="72" y1="174.39999999999998" x2="820" y2="174.39999999999998" stroke="#ececef" stroke-width="1"/><text x="62" y="178.39999999999998" font-size="11" fill="#515154" text-anchor="end" font-weight="400">55</text><line x1="72" y1="115.19999999999999" x2="820" y2="115.19999999999999" stroke="#ececef" stroke-width="1"/><text x="62" y="119.19999999999999" font-size="11" fill="#515154" text-anchor="end" font-weight="400">73</text><line x1="72" y1="56" x2="820" y2="56" stroke="#ececef" stroke-width="1"/><text x="62" y="60" font-size="11" fill="#515154" text-anchor="end" font-weight="400">91</text><rect x="88.83000000000001" y="113.61383133629238" width="41.14" height="238.38616866370762" fill="#146a38" fill-opacity="1" rx="3"/><text x="109.4" y="106.61383133629238" font-size="11.5" fill="#1d1d1f" text-anchor="middle" font-weight="600">73</text><text x="113.4" y="370" font-size="11.5" fill="#1d1d1f" text-anchor="end" font-weight="400" transform="rotate(-28 113.4 370)">基线（原始参数）</text><rect x="163.63" y="99.95003596428137" width="41.14" height="252.04996403571863" fill="#6e6e73" fill-opacity="1" rx="3"/><text x="184.2" y="92.95003596428137" font-size="11.5" fill="#1d1d1f" text-anchor="middle" font-weight="600">78</text><text x="188.2" y="370" font-size="11.5" fill="#1d1d1f" text-anchor="end" font-weight="400" transform="rotate(-28 188.2 370)">轻度分界 28</text><rect x="238.43" y="89.23969754916584" width="41.14" height="262.76030245083416" fill="#6e6e73" fill-opacity="1" rx="3"/><text x="259" y="82.23969754916584" font-size="11.5" fill="#1d1d1f" text-anchor="middle" font-weight="600">81</text><text x="263" y="370" font-size="11.5" fill="#1d1d1f" text-anchor="end" font-weight="400" transform="rotate(-28 263 370)">轻度分界 26</text><rect x="313.23" y="87.71428571428572" width="41.14" height="264.2857142857143" fill="#0057b8" fill-opacity="1" rx="3"/><text x="333.8" y="80.71428571428572" font-size="11.5" fill="#1d1d1f" text-anchor="middle" font-weight="600">81</text><text x="337.8" y="370" font-size="11.5" fill="#1d1d1f" text-anchor="end" font-weight="400" transform="rotate(-28 337.8 370)">轻度分界 24</text><rect x="388.03000000000003" y="113.48400905247283" width="41.14" height="238.51599094752717" fill="#6e6e73" fill-opacity="1" rx="3"/><text x="408.6" y="106.48400905247283" font-size="11.5" fill="#1d1d1f" text-anchor="middle" font-weight="600">73</text><text x="412.6" y="370" font-size="11.5" fill="#1d1d1f" text-anchor="end" font-weight="400" transform="rotate(-28 412.6 370)">EMA 0.15</text><rect x="462.83" y="113.38664233960813" width="41.14" height="238.61335766039187" fill="#6e6e73" fill-opacity="1" rx="3"/><text x="483.4" y="106.38664233960813" font-size="11.5" fill="#1d1d1f" text-anchor="middle" font-weight="600">74</text><text x="487.4" y="370" font-size="11.5" fill="#1d1d1f" text-anchor="end" font-weight="400" transform="rotate(-28 487.4 370)">EMA 0.18</text><rect x="537.63" y="101.54035894107122" width="41.14" height="250.45964105892878" fill="#6e6e73" fill-opacity="1" rx="3"/><text x="558.2" y="94.54035894107122" font-size="11.5" fill="#1d1d1f" text-anchor="middle" font-weight="600">77</text><text x="562.2" y="370" font-size="11.5" fill="#1d1d1f" text-anchor="end" font-weight="400" transform="rotate(-28 562.2 370)">PERCLOS窗口 20s</text><rect x="612.43" y="99.85266925141667" width="41.14" height="252.14733074858333" fill="#6e6e73" fill-opacity="1" rx="3"/><text x="633" y="92.85266925141667" font-size="11.5" fill="#1d1d1f" text-anchor="middle" font-weight="600">78</text><text x="637" y="370" font-size="11.5" fill="#1d1d1f" text-anchor="end" font-weight="400" transform="rotate(-28 637 370)">组合A: 28+EMA0.15</text><rect x="687.2299999999999" y="88.88268626866198" width="41.14" height="263.117313731338" fill="#6e6e73" fill-opacity="1" rx="3"/><text x="707.8" y="81.88268626866198" font-size="11.5" fill="#1d1d1f" text-anchor="middle" font-weight="600">81</text><text x="711.8" y="370" font-size="11.5" fill="#1d1d1f" text-anchor="end" font-weight="400" transform="rotate(-28 711.8 370)">组合B: 26+EMA0.18</text><rect x="762.03" y="95.76326731109981" width="41.14" height="256.2367326889002" fill="#6e6e73" fill-opacity="1" rx="3"/><text x="782.6" y="88.76326731109981" font-size="11.5" fill="#1d1d1f" text-anchor="middle" font-weight="600">79</text><text x="786.6" y="370" font-size="11.5" fill="#1d1d1f" text-anchor="end" font-weight="400" transform="rotate(-28 786.6 370)">组合C: 28+EMA0.15+窗口20</text><line x1="72" y1="56" x2="72" y2="352" stroke="#86868b" stroke-width="1"/><text x="20" y="204" font-size="12.5" fill="#1d1d1f" text-anchor="middle" font-weight="400" transform="rotate(-90 20 204)">灵敏度（%）</text><text x="430" y="439" font-size="10.5" fill="#6e6e73" text-anchor="middle" font-weight="400">最优：轻度分界 24（81.4%）| 基线：73.5%</text>
</svg>